<svg id="visual" viewBox="0 0 960 540" width="960" height="540" xmlns="http://www.w3.org/2000/svg" xmlns:xlink="http://www.w3.org/1999/xlink" version="1.1"><path d="M0 109L80 106.3C160 103.7 320 98.3 480 94.7C640 91 800 89 880 88L960 87L960 0L880 0C800 0 640 0 480 0C320 0 160 0 80 0L0 0Z" fill="#6198ff"></path><path d="M0 131L80 129.2C160 127.3 320 123.7 480 121.8C640 120 800 120 880 120L960 120L960 85L880 86C800 87 640 89 480 92.7C320 96.3 160 101.7 80 104.3L0 107Z" fill="#548fff"></path><path d="M0 260L80 245.7C160 231.3 320 202.7 480 193.7C640 184.7 800 195.3 880 200.7L960 206L960 118L880 118C800 118 640 118 480 119.8C320 121.7 160 125.3 80 127.2L0 129Z" fill="#4686ff"></path><path d="M0 276L80 266.2C160 256.3 320 236.7 480 232.2C640 227.7 800 238.3 880 243.7L960 249L960 204L880 198.7C800 193.3 640 182.7 480 191.7C320 200.7 160 229.3 80 243.7L0 258Z" fill="#387dff"></path><path d="M0 303L80 290.5C160 278 320 253 480 258.5C640 264 800 300 880 318L960 336L960 247L880 241.7C800 236.3 640 225.7 480 230.2C320 234.7 160 254.3 80 264.2L0 274Z" fill="#2874ff"></path><path d="M0 363L80 347.7C160 332.3 320 301.7 480 298C640 294.3 800 317.7 880 329.3L960 341L960 334L880 316C800 298 640 262 480 256.5C320 251 160 276 80 288.5L0 301Z" fill="#126bff"></path><path d="M0 401L80 387.5C160 374 320 347 480 343.3C640 339.7 800 359.3 880 369.2L960 379L960 339L880 327.3C800 315.7 640 292.3 480 296C320 299.7 160 330.3 80 345.7L0 361Z" fill="#0064f9"></path><path d="M0 482L80 459.5C160 437 320 392 480 388.3C640 384.7 800 422.3 880 441.2L960 460L960 377L880 367.2C800 357.3 640 337.7 480 341.3C320 345 160 372 80 385.5L0 399Z" fill="#005fec"></path><path d="M0 482L80 464.8C160 447.7 320 413.3 480 410.5C640 407.7 800 436.3 880 450.7L960 465L960 458L880 439.2C800 420.3 640 382.7 480 386.3C320 390 160 435 80 457.5L0 480Z" fill="#005ae0"></path><path d="M0 536L80 527.8C160 519.7 320 503.3 480 496C640 488.7 800 490.3 880 491.2L960 492L960 463L880 448.7C800 434.3 640 405.7 480 408.5C320 411.3 160 445.7 80 462.8L0 480Z" fill="#0055d3"></path><path d="M0 541L80 538.3C160 535.7 320 530.3 480 523.2C640 516 800 507 880 502.5L960 498L960 490L880 489.2C800 488.3 640 486.7 480 494C320 501.3 160 517.7 80 525.8L0 534Z" fill="#0051c7"></path><path d="M0 541L80 541C160 541 320 541 480 541C640 541 800 541 880 541L960 541L960 496L880 500.5C800 505 640 514 480 521.2C320 528.3 160 533.7 80 536.3L0 539Z" fill="#004cbb"></path></svg>