<svg id="visual" viewBox="0 0 900 600" width="900" height="600" xmlns="http://www.w3.org/2000/svg" xmlns:xlink="http://www.w3.org/1999/xlink" version="1.1"><path d="M0 261L16.7 268.8C33.3 276.7 66.7 292.3 100 306C133.3 319.7 166.7 331.3 200 355.8C233.3 380.3 266.7 417.7 300 404.7C333.3 391.7 366.7 328.3 400 320.8C433.3 313.3 466.7 361.7 500 362C533.3 362.3 566.7 314.7 600 307.5C633.3 300.3 666.7 333.7 700 331.3C733.3 329 766.7 291 800 293.5C833.3 296 866.7 339 883.3 360.5L900 382L900 601L883.3 601C866.7 601 833.3 601 800 601C766.7 601 733.3 601 700 601C666.7 601 633.3 601 600 601C566.7 601 533.3 601 500 601C466.7 601 433.3 601 400 601C366.7 601 333.3 601 300 601C266.7 601 233.3 601 200 601C166.7 601 133.3 601 100 601C66.7 601 33.3 601 16.7 601L0 601Z" fill="#0079ff"></path><path d="M0 464L16.7 468.2C33.3 472.3 66.7 480.7 100 455.5C133.3 430.3 166.7 371.7 200 352.5C233.3 333.3 266.7 353.7 300 380.3C333.3 407 366.7 440 400 456.8C433.3 473.7 466.7 474.3 500 467C533.3 459.7 566.7 444.3 600 431.2C633.3 418 666.7 407 700 406.2C733.3 405.3 766.7 414.7 800 431.5C833.3 448.3 866.7 472.7 883.3 484.8L900 497L900 601L883.3 601C866.7 601 833.3 601 800 601C766.7 601 733.3 601 700 601C666.7 601 633.3 601 600 601C566.7 601 533.3 601 500 601C466.7 601 433.3 601 400 601C366.7 601 333.3 601 300 601C266.7 601 233.3 601 200 601C166.7 601 133.3 601 100 601C66.7 601 33.3 601 16.7 601L0 601Z" fill="#0056e0"></path><path d="M0 410L16.7 407.5C33.3 405 66.7 400 100 420.8C133.3 441.7 166.7 488.3 200 488.8C233.3 489.3 266.7 443.7 300 428.7C333.3 413.7 366.7 429.3 400 435.5C433.3 441.7 466.7 438.3 500 445.2C533.3 452 566.7 469 600 480.8C633.3 492.7 666.7 499.3 700 506.5C733.3 513.7 766.7 521.3 800 508.8C833.3 496.3 866.7 463.7 883.3 447.3L900 431L900 601L883.3 601C866.7 601 833.3 601 800 601C766.7 601 733.3 601 700 601C666.7 601 633.3 601 600 601C566.7 601 533.3 601 500 601C466.7 601 433.3 601 400 601C366.7 601 333.3 601 300 601C266.7 601 233.3 601 200 601C166.7 601 133.3 601 100 601C66.7 601 33.3 601 16.7 601L0 601Z" fill="#0633c0"></path><path d="M0 462L16.7 480.3C33.3 498.7 66.7 535.3 100 540.8C133.3 546.3 166.7 520.7 200 511.5C233.3 502.3 266.7 509.7 300 522.7C333.3 535.7 366.7 554.3 400 561.2C433.3 568 466.7 563 500 543.5C533.3 524 566.7 490 600 483.7C633.3 477.3 666.7 498.7 700 513.2C733.3 527.7 766.7 535.3 800 534.3C833.3 533.3 866.7 523.7 883.3 518.8L900 514L900 601L883.3 601C866.7 601 833.3 601 800 601C766.7 601 733.3 601 700 601C666.7 601 633.3 601 600 601C566.7 601 533.3 601 500 601C466.7 601 433.3 601 400 601C366.7 601 333.3 601 300 601C266.7 601 233.3 601 200 601C166.7 601 133.3 601 100 601C66.7 601 33.3 601 16.7 601L0 601Z" fill="#11009e"></path></svg>